<?xml version="1.0" standalone="no"?>
<!DOCTYPE svg PUBLIC "-//W3C//DTD SVG 20010904//EN"
 "http://www.w3.org/TR/2001/REC-SVG-20010904/DTD/svg10.dtd">
<svg version="1.0" xmlns="http://www.w3.org/2000/svg"
 width="796.000000pt" height="772.000000pt" viewBox="0 0 796.000000 772.000000"
 preserveAspectRatio="xMidYMid meet">

<g transform="translate(0.000000,772.000000) scale(0.100000,-0.100000)"
fill="#ffffff" stroke="none">
<path d="M3647 6914 c-421 -43 -863 -183 -1237 -389 -124 -69 -330 -206 -438
-292 -133 -106 -379 -349 -479 -473 -168 -208 -337 -482 -441 -714 -229 -513
-316 -1093 -248 -1656 64 -529 290 -1104 611 -1555 204 -288 498 -571 785
-757 463 -300 927 -469 1455 -530 162 -19 560 -15 720 6 371 49 684 145 1015
311 239 119 461 265 647 423 l53 44 2 -398 3 -399 543 -3 542 -2 0 1885 0
1885 -1356 -2 -1356 -3 -83 -200 c-220 -524 -383 -920 -380 -923 1 -1 446 -2
989 -2 542 0 986 -2 986 -4 0 -10 -69 -194 -95 -251 -104 -235 -240 -437 -415
-619 -435 -450 -1061 -678 -1691 -616 -201 20 -396 71 -615 161 -428 176 -787
524 -1005 974 -152 314 -218 626 -206 975 13 375 112 705 304 1019 231 379
590 684 983 837 237 92 441 133 700 141 496 16 936 -128 1335 -437 134 -104
341 -320 420 -438 1 -1 49 29 106 68 57 39 264 176 459 306 195 130 359 240
364 245 22 20 -177 272 -359 455 -613 615 -1425 948 -2299 943 -105 -1 -249
-7 -319 -15z"/>
</g>
</svg>
